<svg viewBox="0 0 100 100" width="20" height="20" fill="currentColor" xmlns="http://www.w3.org/2000/svg">
  <path d="M50,0C22.4,0,0,22.4,0,50s22.4,50,50,50,50-22.4,50-50S77.6,0,50,0ZM40.9,18.2h38.6l-2.3,2c0,0,0,.2,0,.3v12c1.4.8,2.3,2.2,2.3,3.9v13.6c0,2.5-2,4.5-4.5,4.5s-4.5-2-4.5-4.5v-13.6c0-1.7.9-3.1,2.3-3.9v-8.4l-8.2,7c.8,1.6,1.3,3.5,1.3,5.9,0,6.2-3.5,9.2-6.9,12-1.1,1.1-2.3,2.3-2.3,4.1s1.3,2.8,2.2,3.6l2.9,2.3c3.6,3.1,6.9,5.9,6.9,11.7s-7.5,15.8-21.6,15.8-17.6-5.7-17.6-11.9,1.5-7.3,6.3-10.2c5.1-3.2,12-3.6,15.7-3.8-1.2-1.5-2.5-3.1-2.5-5.7s.4-2.2.8-3.2c-.9,0-1.8.2-2.6.2-8.6,0-13.6-6.5-13.6-13h-15.4l22.7-20.5ZM48.3,25.5c-2.1,0-4.4,1.1-5.7,2.8-1.4,1.7-1.8,4-1.8,6.1,0,5.6,3.2,14.9,10.3,14.9s4.3-1,5.6-2.3c1.9-1.9,2-4.6,2-6.1,0-6-3.5-15.4-10.3-15.4ZM52.4,62.7c-.7,0-5.2.2-8.6,1.3-1.8.7-7,2.7-7,8.6s5.6,10.2,14.4,10.2,12-3.9,12-9-2.7-6.5-8.9-11c-.7,0-1.1,0-1.9,0Z"/>
</svg>
