<svg viewBox="0 0 256 256" width="20" height="20" fill="#ffffff" xmlns="http://www.w3.org/2000/svg">
  <path d="M256,256H0V0h256v256ZM88.33,128.07l-17.8-33.92c5.64-1.87,9.91-5.04,12.8-9.52,2.89-4.47,4.34-9.56,4.34-15.25,0-5.04-1.06-9.62-3.19-13.73-2.13-4.11-5.33-7.34-9.61-9.7-4.29-2.36-9.47-3.54-15.55-3.54h-31.53v85.66h18.79v-32.34h4.5l16.04,32.34h21.21ZM46.58,59.73h11.65c3.44,0,6.02.94,7.75,2.81,1.72,1.87,2.58,4.43,2.58,7.69,0,3.42-.86,6.06-2.58,7.93-1.72,1.87-4.3,2.81-7.75,2.81h-11.65v-21.23ZM146.68,59.12v-16.72h-47.25v85.66h47.25v-16.72h-28.46v-18.79h25.16v-16.11h-25.16v-17.33h28.46ZM187.77,42.4h-28.9v85.66h28.9c8.06,0,15.14-1.79,21.26-5.37,6.11-3.58,10.84-8.62,14.17-15.13,3.33-6.51,5-13.95,5-22.33s-1.67-15.92-5-22.39c-3.33-6.47-8.04-11.49-14.12-15.07-6.08-3.58-13.19-5.37-21.32-5.37ZM186.57,110.01h-8.9v-49.79h8.9c7.1,0,12.64,2.2,16.59,6.59s5.93,10.54,5.93,18.43-1.98,13.99-5.93,18.31c-3.96,4.31-9.49,6.47-16.59,6.47ZM58.17,156.83c-3.28,0-6.23.71-8.85,2.13-2.62,1.42-4.71,3.36-6.25,5.81v-7.34h-15.28v55.37h15.28v-30.07c0-3.7.86-6.58,2.59-8.63,1.73-2.05,4.05-3.08,6.97-3.08s5.24,1.03,6.97,3.08c1.73,2.05,2.59,4.93,2.59,8.63v30.07h15.19v-32.35c0-7.34-1.74-13.11-5.23-17.32-3.48-4.2-8.15-6.3-13.98-6.3ZM110.71,213.6c4.88,0,9.31-1.16,13.27-3.47,3.96-2.31,7.09-5.64,9.38-9.97,2.29-4.33,3.44-9.34,3.44-15.03s-1.13-10.7-3.4-15.03c-2.26-4.33-5.36-7.66-9.29-9.97-3.93-2.31-8.34-3.47-13.23-3.47s-9.29,1.16-13.22,3.47c-3.93,2.32-7.03,5.64-9.29,9.97-2.26,4.33-3.4,9.35-3.4,15.03s1.12,10.78,3.35,15.08c2.23,4.3,5.3,7.61,9.2,9.92,3.9,2.32,8.29,3.47,13.18,3.47ZM110.71,198.91c-2.92,0-5.35-1.19-7.28-3.57-1.94-2.38-2.9-5.79-2.9-10.22s.98-7.92,2.95-10.27c1.97-2.35,4.44-3.52,7.42-3.52s5.38,1.19,7.37,3.57c2,2.38,2.99,5.79,2.99,10.22s-1.03,7.84-3.08,10.22c-2.05,2.38-4.54,3.57-7.46,3.57ZM167.27,198.41c-1.67,0-2.86-.36-3.57-1.09-.71-.73-1.07-1.92-1.07-3.57v-22.23h10.01v-14.09h-10.01v-13.5h-15.28v13.5h-6.08v14.09h6.08v22.03c0,6.81,1.55,11.73,4.65,14.74,3.1,3.01,7.42,4.51,12.96,4.51h7.77v-14.39h-5.45ZM228.21,184.22c0-5.56-1.06-10.42-3.17-14.59-2.11-4.17-5.05-7.38-8.8-9.63-3.75-2.25-8.04-3.37-12.87-3.37s-9.32,1.16-13.13,3.47c-3.81,2.32-6.78,5.62-8.89,9.92-2.12,4.3-3.17,9.33-3.17,15.08s1.07,10.78,3.22,15.08c2.14,4.3,5.12,7.61,8.93,9.92,3.81,2.32,8.16,3.47,13.05,3.47,4.05,0,7.71-.83,10.99-2.48,3.28-1.65,6-3.94,8.18-6.85,2.17-2.91,3.68-6.18,4.51-9.82h-16.26c-1.49,3.57-4.14,5.36-7.95,5.36-2.56,0-4.72-.91-6.48-2.73-1.76-1.82-2.76-4.45-2.99-7.89h34.58c.18-1.72.27-3.37.27-4.96ZM193.45,179.76c.42-3.04,1.5-5.39,3.26-7.05,1.76-1.65,3.92-2.48,6.48-2.48s4.91.86,6.7,2.58c1.79,1.72,2.68,4.04,2.68,6.95h-19.12Z"/>
</svg>
